<svg width="515" height="99" viewBox="0 0 515 99" fill="none" xmlns="http://www.w3.org/2000/svg">
<g clip-path="url(#clip0_16_58)">
<path d="M14.3799 14.87H8.02992C7.69303 14.87 7.41992 15.1431 7.41992 15.48V21.77C7.41992 22.1069 7.69303 22.38 8.02992 22.38H14.3799C14.7168 22.38 14.9899 22.1069 14.9899 21.77V15.48C14.9899 15.1431 14.7168 14.87 14.3799 14.87Z" fill="white"/>
<path d="M23.88 0.349976H19.1C18.7631 0.349976 18.49 0.623082 18.49 0.959976V5.68998C18.49 6.02687 18.7631 6.29998 19.1 6.29998H23.88C24.2169 6.29998 24.49 6.02687 24.49 5.68998V0.959976C24.49 0.623082 24.2169 0.349976 23.88 0.349976Z" fill="white"/>
<path d="M4.84 31.52H0.61C0.273106 31.52 0 31.7931 0 32.13V36.31C0 36.6469 0.273106 36.92 0.61 36.92H4.84C5.17689 36.92 5.45 36.6469 5.45 36.31V32.13C5.45 31.7931 5.17689 31.52 4.84 31.52Z" fill="white"/>
<path d="M92.95 55.47C92.95 55.24 92.91 55.02 92.82 54.82C92.8 54.76 92.77 54.71 92.74 54.65C92.74 54.63 92.72 54.61 92.71 54.59C92.71 54.58 92.7 54.56 92.69 54.55C92.68 54.53 92.67 54.52 92.66 54.51C92.57 54.36 92.45 54.21 92.31 54.08C92.28 54.04 92.26 54.01 92.26 54.01L83.67 43.77C83.25 43.28 83.25 42.49 83.25 42.49C78.35 11.74 47.06 16.3 47.06 16.3C44.51 16.56 42.47 17.02 41.22 17.36C40.96 17.14 40.8 16.81 40.8 16.45V8.96C40.8 8.29 40.26 7.75 39.59 7.75H32.02C31.35 7.75 30.81 8.29 30.81 8.96V16.45C30.81 17.12 31.35 17.66 32.02 17.66H39.59C39.67 17.66 39.76 17.66 39.83 17.64C39.99 17.61 40.13 17.54 40.26 17.46C40.13 17.55 39.98 17.61 39.83 17.64C39.75 17.66 39.67 17.66 39.59 17.66C39.74 17.66 39.89 17.69 40.02 17.74C40.05 17.75 40.08 17.77 40.11 17.78C40.15 17.8 40.18 17.82 40.21 17.84C40.24 17.86 40.26 17.87 40.29 17.89C40.33 17.92 40.37 17.95 40.4 17.98C40.42 17.99 40.43 18.01 40.45 18.02C40.5 18.07 40.54 18.12 40.58 18.18C40.59 18.2 40.61 18.22 40.62 18.24C40.65 18.28 40.67 18.32 40.69 18.37C40.7 18.39 40.71 18.42 40.72 18.44C40.74 18.49 40.75 18.53 40.76 18.58C40.76 18.6 40.77 18.62 40.78 18.65C40.79 18.72 40.8 18.8 40.8 18.87V26.36C40.8 27.03 40.26 27.57 39.59 27.57H32.02C31.35 27.57 30.81 27.03 30.81 26.36V22.95V18.86C30.81 18.19 30.27 17.65 29.6 17.65H22.03C21.36 17.65 20.82 18.19 20.82 18.86V26.35C20.82 27.02 21.36 27.56 22.03 27.56H29.6C30.27 27.56 30.81 28.1 30.81 28.77V36.26C30.81 36.93 30.27 37.47 29.6 37.47H22.03C21.39 37.47 20.87 36.97 20.83 36.34V33.37C20.83 32.7 20.29 32.16 19.62 32.16H12.93C12.26 32.16 11.72 32.7 11.72 33.37V39.99C11.72 40.66 12.26 41.2 12.93 41.2H18.21C18.13 41.72 18.1 42.02 18.1 42.02C17.95 43.74 17.97 45.46 18.01 46.96C18.37 59.94 25.27 65.77 27.28 67.85C28.64 69.27 31.69 71.73 33.42 74.88C34.52 76.89 35.49 80.7 34.75 85.21C34.64 85.9 34.55 86.49 34.46 86.99C34.12 88.89 33.45 91.89 32.44 93.73C32.44 93.73 31.78 94.95 32.98 95.37C33.04 95.39 33.37 95.5 33.74 95.61C33.9 95.66 34.45 95.82 34.57 95.87C38.6 97.22 53.74 101.39 74.13 96C74.16 96 74.26 95.97 74.38 95.94C76.35 95.45 75.52 94.48 75.52 94.48C74.56 92.73 74.23 90.88 74.13 89.49C74.09 88.49 74.11 87.59 74.18 87.07C74.18 87.01 74.19 86.96 74.2 86.9C74.27 86.26 74.36 84.97 74.71 84.79C76.42 83.93 79.37 83.38 81.61 83.04C85.59 82.43 88.33 80.42 88.91 78.47C89.49 76.52 87.72 74.32 87.17 72.38C86.62 70.43 87.79 70.08 88.43 69.26C89.07 68.44 88.3 68.06 87.57 67.41C86.84 66.76 86.8 66.27 87.81 65.3C88.83 64.33 89.4 64.21 87.57 62.13C85.74 60.06 87.77 58.86 87.77 58.86C87.77 58.86 89.74 58.18 91.33 57.44C92.13 57.15 92.73 56.58 92.9 55.87C92.93 55.75 92.95 55.63 92.95 55.52C92.95 55.51 92.95 55.49 92.95 55.48C92.95 55.47 92.95 55.45 92.95 55.44V55.47ZM40.71 16.91C40.65 17.05 40.56 17.19 40.45 17.29C40.56 17.18 40.65 17.05 40.71 16.91ZM40.72 28.78C40.72 28.11 41.26 27.57 41.93 27.57H49.5C50.17 27.57 50.71 28.11 50.71 28.78V36.27C50.71 36.94 50.17 37.48 49.5 37.48H41.93C41.26 37.48 40.72 36.94 40.72 36.27V28.78ZM32.02 47.39C31.35 47.39 30.81 46.85 30.81 46.18V38.69C30.81 38.02 31.35 37.48 32.02 37.48H39.59C40.26 37.48 40.8 38.02 40.8 38.69V46.18C40.8 46.85 40.26 47.39 39.59 47.39H32.02Z" fill="white"/>
<path d="M169.98 28.81C170.05 28.85 170.12 28.89 170.2 28.92C170.98 29.22 171.36 29.77 171.38 30.6C171.38 30.93 171.38 31.25 171.38 31.58C171.37 36.8 171.35 42.02 171.34 47.24C171.34 47.39 171.34 47.54 171.34 47.74C171.48 47.69 171.57 47.68 171.66 47.63C173.42 46.76 175.28 46.28 177.22 46.03C179.36 45.76 181.48 45.8 183.6 46.21C185.64 46.6 187.56 47.3 189.21 48.59C191.34 50.25 192.63 52.43 193.25 55.04C193.56 56.35 193.72 57.68 193.76 59.03C193.79 60.12 193.82 61.21 193.82 62.3C193.82 67.44 193.82 72.57 193.82 77.71C193.82 77.96 193.81 78.22 193.75 78.47C193.6 79.16 192.98 79.68 192.28 79.73C192.18 79.73 192.08 79.73 191.98 79.73C189.59 79.73 187.2 79.73 184.8 79.73C184.54 79.73 184.25 79.7 184.01 79.6C183.38 79.34 183.03 78.85 182.98 78.17C182.97 78 182.98 77.83 182.98 77.66C182.98 72.11 182.98 66.57 182.98 61.02C182.98 59.39 182.38 58.01 181.16 56.92C180.16 56.02 178.98 55.57 177.64 55.53C176.86 55.51 176.09 55.52 175.32 55.73C173.03 56.38 171.36 58.52 171.37 60.97C171.39 66.53 171.37 72.09 171.37 77.65C171.37 77.85 171.37 78.05 171.34 78.24C171.21 79.13 170.56 79.71 169.66 79.72C168.27 79.73 166.89 79.72 165.5 79.72C164.58 79.72 163.66 79.68 162.74 79.72C161.63 79.77 160.86 78.93 160.86 77.85C160.89 68.94 160.88 60.02 160.89 51.11C160.89 44.36 160.89 37.61 160.9 30.86C160.9 30.66 160.9 30.46 160.93 30.27C161.03 29.61 161.4 29.17 162.02 28.92C162.12 28.88 162.22 28.82 162.32 28.78C164.87 28.78 167.42 28.78 169.96 28.78L169.98 28.81Z" fill="white"/>
<path d="M262.06 28.8101C262.16 28.8601 262.26 28.9001 262.37 28.9501C263.07 29.2201 263.48 29.7901 263.49 30.5401C263.49 30.7101 263.49 30.8801 263.49 31.0501C263.49 38.6301 263.49 46.2201 263.49 53.8001C263.49 53.9601 263.49 54.1101 263.49 54.2701C263.5 54.5801 263.65 54.8101 263.95 54.9201C264.23 55.0301 264.48 54.9501 264.69 54.7601C264.76 54.7001 264.83 54.6201 264.9 54.5501C267.71 51.7801 270.53 49.0201 273.33 46.2301C273.85 45.7101 274.41 45.4801 275.14 45.4801C278.32 45.5001 281.51 45.4801 284.69 45.4801C284.85 45.4801 285 45.4801 285.15 45.5001C285.69 45.6001 285.89 46.1301 285.56 46.5701C285.48 46.6701 285.39 46.7601 285.3 46.8501C278.27 54.1201 271.23 61.4001 264.19 68.6601C263.69 69.1701 263.46 69.7201 263.46 70.4401C263.48 72.9601 263.47 75.4801 263.46 77.9901C263.46 78.8401 262.97 79.4901 262.2 79.6901C262.04 79.7301 261.86 79.7401 261.7 79.7401C259.48 79.7401 257.26 79.7401 255.03 79.7401C253.99 79.7401 253.3 79.0501 253.29 78.0101C253.29 77.8701 253.29 77.7301 253.29 77.5901C253.29 62.0601 253.29 46.5201 253.29 30.9901C253.29 30.9201 253.29 30.8501 253.29 30.7801C253.29 29.7101 253.62 29.2501 254.62 28.8801C254.66 28.8701 254.69 28.8301 254.73 28.8101C257.17 28.8101 259.6 28.8101 262.04 28.8101H262.06Z" fill="white"/>
<path d="M514.51 77.4601C514.37 77.6601 514.25 77.9001 514.07 78.0601C513.55 78.5401 512.22 78.5301 511.68 78.0801C511.35 77.8001 511.19 77.4401 511.19 77.0001C511.19 75.7001 511.19 74.4001 511.19 73.0901C511.19 72.9501 511.19 72.8201 511.19 72.6801C511.16 72.6701 511.13 72.6601 511.11 72.6401C511.03 72.7401 510.95 72.8401 510.87 72.9501C509.42 75.0701 507.59 76.7601 505.32 77.9601C503.52 78.9101 501.61 79.4701 499.58 79.6601C496.21 79.9801 493 79.3801 490.02 77.7701C485.51 75.3401 482.56 71.6401 481.42 66.6501C480.11 60.9601 481.46 55.8401 485.32 51.4501C487.97 48.4501 491.34 46.6701 495.3 46.0301C498.3 45.5501 501.23 45.8401 504.04 47.0001C506.88 48.1701 509.13 50.0701 510.86 52.6001C510.94 52.7101 511.02 52.8201 511.1 52.9201C511.13 52.9201 511.16 52.9001 511.19 52.9001C511.19 52.5701 511.21 52.2301 511.19 51.9101C511.09 50.7201 511.87 50.1501 512.89 50.2101C513.4 50.2401 513.88 50.2901 514.23 50.7101C514.33 50.8401 514.41 50.9801 514.5 51.1201V77.4401L514.51 77.4601ZM498 76.3901C499.52 76.4101 501.06 76.1501 502.53 75.5701C505.61 74.3501 507.77 72.1701 509.15 69.2001C510.26 66.8201 510.65 64.3001 510.47 61.6801C510.34 59.8401 509.93 58.0701 509.15 56.4001C507.89 53.6901 505.97 51.6001 503.23 50.3301C500.58 49.1001 497.81 48.9001 494.98 49.5201C487.51 51.1601 482.84 58.7201 484.73 66.1301C486.27 72.1901 491.77 76.4101 497.99 76.3901H498Z" fill="white"/>
<path d="M370.61 47.53C370.62 47.37 370.63 47.27 370.64 47.17C370.68 46.25 371.27 45.61 372.19 45.5C372.33 45.48 372.47 45.49 372.61 45.48C374.65 45.48 376.69 45.48 378.73 45.48C378.86 45.48 378.99 45.48 379.11 45.49C380.01 45.59 380.61 46.19 380.69 47.09C380.7 47.23 380.69 47.37 380.69 47.51C380.69 57.51 380.69 67.52 380.69 77.52C380.69 79.82 380.49 82.1 379.86 84.32C379.3 86.29 378.45 88.11 377.16 89.71C375.59 91.65 373.61 93.02 371.27 93.88C368.56 94.88 365.75 95.18 362.87 94.96C359.61 94.71 356.61 93.61 353.78 92.03C352.1 91.09 350.52 89.99 349.02 88.78C348.1 88.04 348.05 86.98 348.88 86.13C349.93 85.06 350.98 83.99 352.04 82.92C352.74 82.21 353.5 82.12 354.34 82.65C356.17 83.8 358.1 84.73 360.16 85.39C361.33 85.77 362.51 86.13 363.74 86.24C365.92 86.44 367.68 85.67 368.95 83.87C369.79 82.68 370.23 81.33 370.46 79.9C370.55 79.3 370.59 78.7 370.67 78.02C370.49 78.09 370.38 78.12 370.29 78.17C368.21 79.26 365.98 79.78 363.65 79.92C361.63 80.04 359.63 79.9 357.67 79.4C355.13 78.75 352.92 77.53 351.11 75.61C349.6 74.01 348.56 72.12 347.87 70.04C346.88 67.06 346.61 63.99 346.83 60.87C346.98 58.72 347.41 56.64 348.22 54.65C349.29 52.01 350.91 49.78 353.26 48.13C354.93 46.95 356.78 46.21 358.78 45.83C361.63 45.29 364.47 45.37 367.27 46.14C368.28 46.42 369.25 46.81 370.18 47.31C370.3 47.38 370.43 47.43 370.61 47.52V47.53ZM355.75 62.92C355.83 63.63 355.87 64.36 356.01 65.06C356.38 67.04 357.22 68.79 358.68 70.21C361.34 72.79 365.12 72.78 367.77 70.19C368.44 69.53 369 68.79 369.42 67.95C370.77 65.27 370.98 62.49 370.14 59.63C369.6 57.81 368.64 56.25 367.13 55.06C364.77 53.2 361.7 53.19 359.32 55.03C358.66 55.53 358.1 56.13 357.63 56.81C356.36 58.65 355.79 60.7 355.74 62.93L355.75 62.92Z" fill="white"/>
<path d="M225.39 47.7601C225.52 47.7101 225.6 47.6801 225.67 47.6501C227.42 46.7801 229.29 46.3001 231.23 46.0501C232.47 45.8901 233.71 45.8501 234.96 45.9101C236.91 46.0101 238.81 46.3601 240.62 47.1101C243.94 48.5001 246.08 50.9601 247.1 54.3901C247.5 55.7401 247.69 57.1301 247.77 58.5301C247.83 59.6601 247.85 60.7901 247.85 61.9201C247.85 67.1801 247.85 72.4501 247.85 77.7101C247.85 77.9201 247.85 78.1401 247.81 78.3401C247.67 79.1701 247.03 79.7201 246.2 79.7501C246.13 79.7501 246.06 79.7501 245.99 79.7501C243.61 79.7501 241.23 79.7501 238.86 79.7501C238.64 79.7501 238.4 79.7301 238.19 79.6701C237.51 79.4701 237.06 78.8701 237.03 78.1601C237.03 77.9901 237.03 77.8201 237.03 77.6501C237.03 72.1201 237.03 66.5901 237.03 61.0501C237.03 59.1701 236.25 57.6601 234.73 56.5501C234.01 56.0201 233.2 55.7001 232.31 55.6001C231.25 55.4801 230.19 55.4801 229.16 55.8201C226.97 56.5501 225.43 58.6301 225.44 60.9701C225.46 66.5301 225.44 72.0901 225.44 77.6501C225.44 77.8601 225.44 78.0801 225.41 78.2801C225.28 79.1501 224.63 79.7201 223.75 79.7401C223.33 79.7401 222.9 79.7401 222.48 79.7401C220.54 79.7401 218.6 79.7401 216.66 79.7401C215.82 79.7401 215.16 79.2201 214.99 78.4501C214.94 78.2501 214.95 78.0301 214.95 77.8201C214.95 74.5101 214.95 71.2001 214.95 67.8901C214.95 61.2301 214.95 54.5601 214.95 47.9001C214.95 47.7301 214.95 47.5601 214.95 47.3901C215 46.6601 215.52 46.0401 216.23 45.8901C216.42 45.8501 216.62 45.8301 216.82 45.8301C219.06 45.8301 221.29 45.8301 223.53 45.8301C223.68 45.8301 223.84 45.8401 223.99 45.8701C224.78 46.0101 225.32 46.6101 225.38 47.4101C225.38 47.5101 225.4 47.6101 225.41 47.7601H225.39Z" fill="white"/>
<path d="M318.83 47.7601C318.96 47.7101 319.04 47.6801 319.11 47.6501C320.86 46.7801 322.73 46.3001 324.67 46.0501C325.91 45.8901 327.15 45.8501 328.4 45.9101C330.35 46.0101 332.25 46.3601 334.06 47.1101C337.38 48.5001 339.52 50.9601 340.54 54.3901C340.94 55.7401 341.13 57.1301 341.21 58.5301C341.27 59.6601 341.29 60.7901 341.29 61.9201C341.29 67.1801 341.29 72.4501 341.29 77.7101C341.29 77.9201 341.29 78.1401 341.25 78.3401C341.11 79.1701 340.47 79.7201 339.64 79.7501C339.57 79.7501 339.5 79.7501 339.43 79.7501C337.05 79.7501 334.67 79.7501 332.3 79.7501C332.08 79.7501 331.84 79.7301 331.63 79.6701C330.95 79.4701 330.5 78.8701 330.47 78.1601C330.47 77.9901 330.47 77.8201 330.47 77.6501C330.47 72.1201 330.47 66.5901 330.47 61.0501C330.47 59.4001 329.87 58.0201 328.63 56.9201C327.64 56.0401 326.47 55.5901 325.15 55.5501C324.37 55.5301 323.59 55.5301 322.83 55.7501C320.51 56.4101 318.86 58.5601 318.87 60.9801C318.89 66.5401 318.87 72.1001 318.87 77.6601C318.87 77.8701 318.87 78.0901 318.84 78.2901C318.71 79.1601 318.06 79.7301 317.18 79.7501C316.73 79.7501 316.27 79.7501 315.82 79.7501C313.91 79.7501 312 79.7501 310.09 79.7501C309.25 79.7501 308.59 79.2301 308.42 78.4601C308.37 78.2601 308.38 78.0401 308.38 77.8301C308.38 74.4601 308.38 71.1001 308.38 67.7301C308.38 61.1201 308.38 54.5201 308.38 47.9101C308.38 47.7301 308.38 47.5401 308.38 47.3601C308.44 46.6701 308.95 46.0701 309.62 45.9101C309.81 45.8601 310.01 45.8401 310.21 45.8401C312.47 45.8401 314.74 45.8401 317 45.8401C317.14 45.8401 317.28 45.8601 317.42 45.8801C318.21 46.0201 318.75 46.6201 318.81 47.4201C318.81 47.5201 318.83 47.6201 318.84 47.7701L318.83 47.7601Z" fill="white"/>
<path d="M135.04 32.92C141.14 32.92 147.24 32.92 153.34 32.92C153.54 32.92 153.74 32.92 153.93 32.95C154.74 33.07 155.28 33.61 155.4 34.42C155.42 34.57 155.42 34.73 155.42 34.89C155.42 36.97 155.42 39.05 155.42 41.13C155.42 41.34 155.41 41.56 155.36 41.76C155.21 42.49 154.58 43.03 153.84 43.07C153.68 43.07 153.53 43.07 153.37 43.07C149.62 43.07 145.87 43.07 142.12 43.07C141.88 43.07 141.64 43.08 141.41 43.14C140.68 43.32 140.18 43.95 140.14 44.7C140.14 44.91 140.14 45.12 140.14 45.34C140.14 56.11 140.14 66.87 140.14 77.64C140.14 77.87 140.14 78.09 140.1 78.32C139.96 79.17 139.32 79.73 138.46 79.75C137.64 79.76 136.82 79.75 136 79.75C134.64 79.75 133.28 79.71 131.92 79.76C130.77 79.81 129.96 79.02 129.97 77.79C130 66.91 129.99 56.03 129.98 45.15C129.98 44.92 129.98 44.69 129.94 44.48C129.78 43.68 129.15 43.14 128.34 43.08C128.18 43.07 128.03 43.08 127.87 43.08C124.12 43.08 120.37 43.08 116.62 43.08C116.41 43.08 116.19 43.08 115.99 43.04C115.23 42.87 114.71 42.22 114.7 41.41C114.69 40.45 114.7 39.49 114.7 38.52C114.7 37.29 114.74 36.06 114.69 34.83C114.65 33.79 115.35 32.9 116.62 32.92C118.49 32.95 120.36 32.92 122.22 32.92C126.49 32.92 130.77 32.92 135.04 32.92Z" fill="white"/>
<path d="M386.51 56.34C386.51 49.28 386.51 42.22 386.51 35.16C386.51 35 386.51 34.85 386.51 34.69C386.52 33.65 387.19 32.96 388.22 32.92C388.32 32.92 388.42 32.92 388.52 32.92C393.74 32.92 398.97 32.92 404.19 32.92C405.81 32.92 407.41 33.06 409 33.4C413.28 34.31 416.98 36.32 420.07 39.4C423.1 42.42 425.09 46.03 426.03 50.21C426.44 52.03 426.59 53.87 426.57 55.73C426.54 58.92 425.94 61.99 424.72 64.95C421.76 72.1 415.39 77.45 407.84 79.16C406.15 79.54 404.44 79.75 402.71 79.75C397.93 79.75 393.14 79.75 388.36 79.75C388.14 79.75 387.9 79.73 387.69 79.67C387.01 79.47 386.56 78.87 386.52 78.16C386.52 77.99 386.52 77.82 386.52 77.65C386.52 70.55 386.52 63.45 386.52 56.34H386.51ZM389.89 76.39C390.07 76.39 390.19 76.39 390.32 76.39C394.45 76.39 398.59 76.39 402.72 76.39C404 76.39 405.27 76.28 406.51 76.01C412.88 74.65 417.65 71.11 420.77 65.4C422.92 61.48 423.54 57.24 423.06 52.83C422.76 50.04 421.87 47.44 420.33 45.1C416.57 39.36 411.22 36.43 404.36 36.29C403 36.26 401.64 36.29 400.28 36.29C396.98 36.29 393.68 36.29 390.39 36.29C390.23 36.29 390.07 36.3 389.9 36.31V76.4L389.89 76.39Z" fill="white"/>
<path d="M458.2 52.41C458.2 52.14 458.2 51.88 458.2 51.61C458.22 50.87 458.68 50.35 459.41 50.26C459.72 50.22 460.03 50.23 460.34 50.26C461.02 50.34 461.47 50.8 461.55 51.48C461.57 51.62 461.56 51.76 461.56 51.9C461.56 60.18 461.56 68.45 461.56 76.73C461.56 76.94 461.55 77.16 461.51 77.36C461.38 77.94 460.9 78.35 460.31 78.38C460.06 78.39 459.8 78.39 459.55 78.38C458.77 78.36 458.22 77.82 458.22 77.03C458.21 75.88 458.22 74.74 458.22 73.59C458.22 73.45 458.22 73.32 458.14 73.15C458.06 73.24 457.98 73.32 457.91 73.41C456.34 75.55 454.37 77.21 451.95 78.32C450.36 79.05 448.68 79.5 446.93 79.66C443.25 80 439.8 79.26 436.63 77.35C432.51 74.87 429.82 71.29 428.77 66.6C427.5 60.93 428.83 55.84 432.66 51.48C435.31 48.46 438.69 46.67 442.67 46.04C446 45.51 449.21 45.92 452.26 47.4C454.52 48.5 456.37 50.09 457.86 52.1C457.94 52.21 458.03 52.32 458.11 52.43C458.14 52.43 458.18 52.41 458.21 52.4L458.2 52.41ZM445.35 76.39C446.62 76.41 447.94 76.22 449.23 75.79C452.62 74.67 454.99 72.4 456.49 69.2C457.6 66.82 457.99 64.3 457.81 61.68C457.68 59.84 457.27 58.07 456.49 56.4C455.23 53.69 453.31 51.6 450.57 50.33C447.92 49.1 445.15 48.9 442.32 49.52C434.81 51.16 430.15 58.77 432.09 66.21C433.64 72.19 439.1 76.41 445.35 76.39Z" fill="white"/>
<path d="M199.29 62.7901C199.29 57.8001 199.29 52.8001 199.29 47.8101C199.29 47.5801 199.29 47.3501 199.33 47.1401C199.5 46.3701 200.15 45.8601 200.99 45.8301C201.41 45.8101 201.84 45.8301 202.26 45.8301C203.99 45.8301 205.71 45.8301 207.44 45.8301C207.61 45.8301 207.78 45.8301 207.95 45.8601C208.76 45.9801 209.3 46.5201 209.41 47.3401C209.44 47.5201 209.43 47.7101 209.43 47.8901C209.43 57.8301 209.43 67.7801 209.43 77.7201C209.43 77.9301 209.43 78.1501 209.39 78.3501C209.25 79.1801 208.61 79.7301 207.77 79.7501C207.35 79.7601 206.92 79.7501 206.5 79.7501C204.69 79.7501 202.88 79.7501 201.07 79.7501C200.61 79.7501 200.2 79.6401 199.85 79.3401C199.49 79.0301 199.29 78.6301 199.28 78.1501C199.28 77.9801 199.28 77.8101 199.28 77.6401C199.28 72.6901 199.28 67.7401 199.28 62.7901H199.29Z" fill="white"/>
<path d="M292.73 62.8201C292.73 57.8101 292.73 52.8101 292.73 47.8001C292.73 47.5901 292.72 47.3701 292.77 47.1701C292.94 46.4801 293.37 46.0301 294.08 45.8801C294.27 45.8401 294.47 45.8301 294.67 45.8301C296.76 45.8301 298.86 45.8301 300.95 45.8301C301.15 45.8301 301.35 45.8401 301.54 45.8801C302.24 46.0401 302.68 46.4701 302.83 47.1801C302.88 47.4101 302.88 47.6601 302.88 47.9001C302.88 57.8301 302.88 67.7601 302.88 77.6901C302.88 77.8201 302.88 77.9401 302.88 78.0701C302.83 79.0801 302.14 79.7501 301.12 79.7501C299.11 79.7501 297.1 79.7501 295.09 79.7501C294.85 79.7501 294.61 79.7501 294.37 79.7501C293.44 79.7201 292.75 79.0301 292.72 78.1001C292.71 77.6901 292.72 77.2801 292.72 76.8701C292.72 72.1901 292.72 67.5101 292.72 62.8201H292.73Z" fill="white"/>
<path d="M470.09 50.37C469.87 50.37 469.72 50.37 469.57 50.37C468.25 50.37 466.94 50.34 465.62 50.37C464.77 50.39 464.07 49.73 464.14 48.89C464.15 48.74 464.14 48.58 464.14 48.42C464.15 47.58 464.67 47.04 465.51 47C465.85 46.98 466.19 47 466.53 47C467.58 47 468.62 47 469.67 47C469.79 47 469.92 46.98 470.09 46.97V46.45C470.09 43.13 470.1 39.8 470.09 36.48C470.09 35.66 470.37 35.06 471.06 34.63C471.46 34.38 471.83 34.1 472.21 33.83C472.48 33.63 472.76 33.46 473.11 33.64C473.45 33.82 473.48 34.14 473.48 34.48C473.48 36.38 473.48 38.27 473.48 40.17V46.45C473.48 46.62 473.48 46.78 473.48 47C473.68 47 473.84 47.02 474.01 47.02C475.82 47.02 477.63 47.02 479.45 47.02C479.61 47.02 479.76 47.02 479.92 47.04C480.58 47.13 481.03 47.57 481.11 48.23C481.15 48.55 481.15 48.88 481.11 49.2C481.02 49.91 480.5 50.36 479.78 50.37C479.37 50.37 478.96 50.37 478.55 50.37C477.05 50.37 475.55 50.37 474.05 50.37C473.9 50.37 473.74 50.37 473.54 50.37C473.53 50.56 473.51 50.72 473.51 50.88C473.51 53.14 473.51 55.41 473.51 57.67C473.51 63.29 473.53 68.9 473.49 74.52C473.49 75.73 474.21 76.63 475.55 76.57C476.78 76.51 478.01 76.59 479.24 76.55C480.01 76.52 480.46 77.05 480.01 77.78C479.82 78.09 479.68 78.44 479.51 78.76C479.18 79.41 478.65 79.75 477.91 79.75C476.76 79.75 475.62 79.76 474.47 79.75C472.12 79.72 470.18 77.79 470.13 75.45C470.13 75.25 470.13 75.05 470.13 74.86C470.13 66.91 470.13 58.96 470.13 51.01C470.13 50.83 470.13 50.65 470.13 50.39L470.09 50.37Z" fill="white"/>
<path d="M281.08 79.7501C279.5 79.7501 277.91 79.7401 276.33 79.7501C275.91 79.7501 275.64 79.6101 275.43 79.2501C273.24 75.6301 271.05 72.0201 268.86 68.4001C268.59 67.9501 268.61 67.7101 268.97 67.3401C270.99 65.2801 273.01 63.2101 275.02 61.1501C275.22 60.9501 275.43 60.8101 275.73 60.8801C275.99 60.9401 276.13 61.1301 276.25 61.3401C276.76 62.1901 277.26 63.0401 277.77 63.8901C280.66 68.7301 283.55 73.5801 286.44 78.4201C286.51 78.5301 286.58 78.6401 286.63 78.7501C286.86 79.2501 286.59 79.7101 286.04 79.7301C285.63 79.7501 285.22 79.7301 284.81 79.7301C283.56 79.7301 282.32 79.7301 281.07 79.7301L281.08 79.7501Z" fill="white"/>
<path d="M204.38 32.99C205.51 32.99 206.64 32.99 207.78 32.99C208.37 32.99 208.81 33.25 209.14 33.73C209.35 34.04 209.39 34.38 209.39 34.74C209.39 36.27 209.39 37.8 209.39 39.32C209.39 39.98 209.37 40.65 209.39 41.31C209.43 42.17 208.8 43.03 207.65 43.03C205.46 43.03 203.26 43.03 201.07 43.03C200.04 43.03 199.34 42.32 199.34 41.28C199.34 39.53 199.34 37.77 199.34 36.02C199.34 35.61 199.34 35.2 199.34 34.79C199.32 33.67 200.11 32.94 201.12 32.97C202.21 33.01 203.3 32.97 204.39 32.97L204.38 32.99Z" fill="white"/>
<path d="M297.81 32.99C298.94 32.99 300.07 32.99 301.21 32.99C301.8 32.99 302.24 33.25 302.57 33.73C302.78 34.04 302.82 34.38 302.82 34.74C302.82 36.27 302.82 37.8 302.82 39.32C302.82 39.98 302.8 40.65 302.82 41.31C302.86 42.17 302.24 43.03 301.08 43.03C298.89 43.03 296.69 43.03 294.5 43.03C293.47 43.03 292.77 42.32 292.77 41.28C292.77 39.53 292.77 37.77 292.77 36.02C292.77 35.61 292.77 35.2 292.77 34.79C292.75 33.67 293.54 32.94 294.55 32.97C295.64 33.01 296.73 32.97 297.82 32.97L297.81 32.99Z" fill="white"/>
</g>
<defs>
<clipPath id="clip0_16_58">
<rect width="514.51" height="98.35" fill="white" transform="translate(0 0.349976)"/>
</clipPath>
</defs>
</svg>
