<svg width="293" height="57" viewBox="0 0 293 57" fill="none" xmlns="http://www.w3.org/2000/svg">
<g clip-path="url(#clip0_97_1280)">
<path d="M8.1876 8.51855H4.57194C4.38011 8.51855 4.22461 8.67406 4.22461 8.86589V12.4474C4.22461 12.6392 4.38011 12.7947 4.57194 12.7947H8.1876C8.37943 12.7947 8.53493 12.6392 8.53493 12.4474V8.86589C8.53493 8.67406 8.37943 8.51855 8.1876 8.51855Z" fill="#004BFF"/>
<path d="M13.5974 0.250977H10.8757C10.6838 0.250977 10.5283 0.406482 10.5283 0.598308V3.29155C10.5283 3.48337 10.6838 3.63888 10.8757 3.63888H13.5974C13.7892 3.63888 13.9447 3.48337 13.9447 3.29155V0.598308C13.9447 0.406482 13.7892 0.250977 13.5974 0.250977Z" fill="#004BFF"/>
<path d="M2.75587 17.999H0.347331C0.155505 17.999 0 18.1545 0 18.3464V20.7264C0 20.9183 0.155505 21.0738 0.347331 21.0738H2.75587C2.9477 21.0738 3.1032 20.9183 3.1032 20.7264V18.3464C3.1032 18.1545 2.9477 17.999 2.75587 17.999Z" fill="#004BFF"/>
<path d="M52.9248 31.636C52.9248 31.505 52.9021 31.3798 52.8508 31.2659C52.8394 31.2317 52.8223 31.2033 52.8053 31.1691C52.8053 31.1577 52.7939 31.1463 52.7882 31.1349C52.7882 31.1292 52.7825 31.1179 52.7768 31.1122C52.7711 31.1008 52.7654 31.0951 52.7597 31.0894C52.7085 31.004 52.6401 30.9186 52.5604 30.8445C52.5433 30.8218 52.5319 30.8047 52.5319 30.8047L47.6408 24.9741C47.4017 24.6951 47.4017 24.2453 47.4017 24.2453C44.6117 6.73636 26.7953 9.3328 26.7953 9.3328C25.3433 9.48085 24.1818 9.74277 23.47 9.93636C23.322 9.8111 23.2309 9.6232 23.2309 9.41821V5.15345C23.2309 4.77195 22.9234 4.46448 22.5419 4.46448H18.2316C17.8501 4.46448 17.5426 4.77195 17.5426 5.15345V9.41821C17.5426 9.79971 17.8501 10.1072 18.2316 10.1072H22.5419C22.5875 10.1072 22.6387 10.1072 22.6786 10.0958C22.7697 10.0787 22.8494 10.0389 22.9234 9.9933C22.8494 10.0445 22.764 10.0787 22.6786 10.0958C22.633 10.1072 22.5875 10.1072 22.5419 10.1072C22.6273 10.1072 22.7127 10.1243 22.7867 10.1527C22.8038 10.1584 22.8209 10.1698 22.838 10.1755C22.8608 10.1869 22.8778 10.1983 22.8949 10.2097C22.912 10.2211 22.9234 10.2268 22.9405 10.2381C22.9633 10.2552 22.986 10.2723 23.0031 10.2894C23.0145 10.2951 23.0202 10.3065 23.0316 10.3122C23.06 10.3406 23.0828 10.3691 23.1056 10.4033C23.1113 10.4147 23.1227 10.426 23.1284 10.4374C23.1455 10.4602 23.1568 10.483 23.1682 10.5115C23.1739 10.5228 23.1796 10.5399 23.1853 10.5513C23.1967 10.5798 23.2024 10.6026 23.2081 10.631C23.2081 10.6424 23.2138 10.6538 23.2195 10.6709C23.2252 10.7107 23.2309 10.7563 23.2309 10.7962V15.0609C23.2309 15.4424 22.9234 15.7499 22.5419 15.7499H18.2316C17.8501 15.7499 17.5426 15.4424 17.5426 15.0609V13.1193V10.7905C17.5426 10.409 17.2351 10.1015 16.8536 10.1015H12.5433C12.1618 10.1015 11.8543 10.409 11.8543 10.7905V15.0552C11.8543 15.4367 12.1618 15.7442 12.5433 15.7442H16.8536C17.2351 15.7442 17.5426 16.0517 17.5426 16.4332V20.6979C17.5426 21.0794 17.2351 21.3869 16.8536 21.3869H12.5433C12.1789 21.3869 11.8828 21.1022 11.86 20.7435V19.0524C11.86 18.6709 11.5526 18.3634 11.1711 18.3634H7.36182C6.98033 18.3634 6.67285 18.6709 6.67285 19.0524V22.8218C6.67285 23.2033 6.98033 23.5107 7.36182 23.5107H10.3682C10.3227 23.8068 10.3056 23.9776 10.3056 23.9776C10.2202 24.957 10.2316 25.9364 10.2543 26.7905C10.4593 34.1812 14.3882 37.5008 15.5326 38.6851C16.307 39.4937 18.0437 40.8944 19.0287 42.688C19.6551 43.8324 20.2074 46.0018 19.786 48.5698C19.7234 48.9627 19.6721 49.2986 19.6209 49.5833C19.4273 50.6652 19.0458 52.3734 18.4707 53.4211C18.4707 53.4211 18.0949 54.1157 18.7782 54.3549C18.8124 54.3663 19.0003 54.4289 19.2109 54.4915C19.302 54.52 19.6152 54.6111 19.6835 54.6396C21.9782 55.4082 30.5988 57.7826 42.2088 54.7136C42.2259 54.7136 42.2828 54.6965 42.3512 54.6794C43.4729 54.4004 43.0003 53.8481 43.0003 53.8481C42.4537 52.8517 42.2658 51.7983 42.2088 51.0068C42.186 50.4374 42.1974 49.925 42.2373 49.6289C42.2373 49.5947 42.243 49.5663 42.2487 49.5321C42.2885 49.1677 42.3398 48.4332 42.5391 48.3307C43.5127 47.841 45.1924 47.5278 46.4679 47.3342C48.7341 46.9869 50.2942 45.8424 50.6245 44.7321C50.9547 43.6218 49.9469 42.3691 49.6337 41.2645C49.3206 40.1542 49.9868 39.9549 50.3512 39.488C50.7156 39.0211 50.2771 38.8047 49.8615 38.4346C49.4458 38.0645 49.423 37.7855 49.9981 37.2332C50.5789 36.6808 50.9035 36.6125 49.8615 35.4282C48.8195 34.2495 49.9754 33.5663 49.9754 33.5663C49.9754 33.5663 51.0971 33.1791 52.0024 32.7577C52.4579 32.5926 52.7996 32.268 52.8964 31.8638C52.9134 31.7954 52.9248 31.7271 52.9248 31.6645C52.9248 31.6588 52.9248 31.6474 52.9248 31.6417C52.9248 31.636 52.9248 31.6246 52.9248 31.6189V31.636ZM23.1796 9.68014C23.1455 9.75985 23.0942 9.83957 23.0316 9.89651C23.0942 9.83387 23.1455 9.75985 23.1796 9.68014ZM23.1853 16.4389C23.1853 16.0574 23.4928 15.7499 23.8743 15.7499H28.1846C28.5661 15.7499 28.8736 16.0574 28.8736 16.4389V20.7036C28.8736 21.0851 28.5661 21.3926 28.1846 21.3926H23.8743C23.4928 21.3926 23.1853 21.0851 23.1853 20.7036V16.4389ZM18.2316 27.0353C17.8501 27.0353 17.5426 26.7278 17.5426 26.3463V22.0816C17.5426 21.7001 17.8501 21.3926 18.2316 21.3926H22.5419C22.9234 21.3926 23.2309 21.7001 23.2309 22.0816V26.3463C23.2309 26.7278 22.9234 27.0353 22.5419 27.0353H18.2316Z" fill="#004BFF"/>
<path d="M96.7857 16.4559C96.8255 16.4787 96.8654 16.5015 96.9109 16.5186C97.3551 16.6894 97.5714 17.0025 97.5828 17.4751C97.5828 17.663 97.5828 17.8452 97.5828 18.0331C97.5771 21.0054 97.5657 23.9776 97.56 26.9499C97.56 27.0353 97.56 27.1207 97.56 27.2346C97.6397 27.2061 97.691 27.2004 97.7422 27.1719C98.7444 26.6766 99.8035 26.4033 100.908 26.2609C102.127 26.1072 103.334 26.1299 104.541 26.3634C105.702 26.5855 106.796 26.984 107.735 27.7186C108.948 28.6638 109.682 29.905 110.035 31.3912C110.212 32.1371 110.303 32.8944 110.326 33.663C110.343 34.2837 110.36 34.9043 110.36 35.525C110.36 38.4517 110.36 41.3727 110.36 44.2993C110.36 44.4417 110.354 44.5897 110.32 44.7321C110.235 45.125 109.882 45.421 109.483 45.4495C109.426 45.4495 109.369 45.4495 109.312 45.4495C107.951 45.4495 106.591 45.4495 105.224 45.4495C105.076 45.4495 104.911 45.4324 104.774 45.3755C104.416 45.2275 104.216 44.9485 104.188 44.5613C104.182 44.4645 104.188 44.3677 104.188 44.2709C104.188 41.1107 104.188 37.9563 104.188 34.7961C104.188 33.868 103.846 33.0823 103.151 32.4616C102.582 31.9492 101.91 31.6929 101.147 31.6702C100.703 31.6588 100.265 31.6645 99.8262 31.784C98.5223 32.1541 97.5714 33.3727 97.5771 34.7677C97.5885 37.9335 97.5771 41.0993 97.5771 44.2652C97.5771 44.3791 97.5771 44.4929 97.56 44.6011C97.486 45.1079 97.1159 45.4381 96.6035 45.4438C95.812 45.4495 95.0262 45.4438 94.2348 45.4438C93.7109 45.4438 93.1871 45.421 92.6632 45.4438C92.0312 45.4723 91.5928 44.994 91.5928 44.3791C91.6099 39.3057 91.6042 34.2267 91.6099 29.1534C91.6099 25.31 91.6099 21.4666 91.6155 17.6232C91.6155 17.5093 91.6155 17.3954 91.6326 17.2872C91.6896 16.9114 91.9002 16.6609 92.2533 16.5186C92.3102 16.4958 92.3672 16.4616 92.4241 16.4388C93.8761 16.4388 95.328 16.4388 96.7743 16.4388L96.7857 16.4559Z" fill="#231815"/>
<path d="M149.215 16.4559C149.272 16.4844 149.329 16.5072 149.392 16.5356C149.79 16.6894 150.024 17.0139 150.03 17.441C150.03 17.5378 150.03 17.6346 150.03 17.7314C150.03 22.0474 150.03 26.3691 150.03 30.6851C150.03 30.7762 150.03 30.8616 150.03 30.9527C150.035 31.1292 150.121 31.2602 150.291 31.3228C150.451 31.3855 150.593 31.3399 150.713 31.2317C150.753 31.1976 150.793 31.152 150.832 31.1122C152.432 29.5349 154.038 27.9634 155.632 26.3748C155.928 26.0787 156.247 25.9477 156.663 25.9477C158.474 25.9591 160.29 25.9477 162.101 25.9477C162.192 25.9477 162.277 25.9477 162.363 25.9591C162.67 26.0161 162.784 26.3179 162.596 26.5684C162.551 26.6253 162.499 26.6766 162.448 26.7278C158.445 30.8673 154.437 35.0125 150.428 39.1463C150.143 39.4367 150.012 39.7499 150.012 40.1598C150.024 41.5947 150.018 43.0296 150.012 44.4588C150.012 44.9428 149.733 45.3129 149.295 45.4267C149.204 45.4495 149.101 45.4552 149.01 45.4552C147.746 45.4552 146.482 45.4552 145.212 45.4552C144.62 45.4552 144.227 45.0623 144.222 44.4702C144.222 44.3905 144.222 44.3107 144.222 44.231C144.222 35.3883 144.222 26.5399 144.222 17.6972C144.222 17.6574 144.222 17.6175 144.222 17.5776C144.222 16.9684 144.41 16.7065 144.979 16.4958C145.002 16.4901 145.019 16.4673 145.042 16.4559C146.431 16.4559 147.815 16.4559 149.204 16.4559H149.215Z" fill="#231815"/>
<path d="M292.959 44.157C292.879 44.2708 292.811 44.4075 292.708 44.4986C292.412 44.7719 291.655 44.7662 291.347 44.51C291.16 44.3506 291.068 44.1456 291.068 43.895C291.068 43.1548 291.068 42.4146 291.068 41.6687C291.068 41.589 291.068 41.515 291.068 41.4353C291.051 41.4296 291.034 41.4239 291.023 41.4125C290.977 41.4694 290.932 41.5264 290.886 41.589C290.061 42.7961 289.019 43.7584 287.726 44.4417C286.701 44.9826 285.614 45.3014 284.458 45.4096C282.539 45.5918 280.711 45.2502 279.014 44.3335C276.446 42.9498 274.767 40.8431 274.118 38.0018C273.372 34.7619 274.14 31.8466 276.338 29.347C277.847 27.6388 279.766 26.6253 282.021 26.2609C283.729 25.9876 285.397 26.1527 286.997 26.8132C288.614 27.4794 289.896 28.5612 290.881 30.0018C290.926 30.0644 290.972 30.1271 291.017 30.184C291.034 30.184 291.051 30.1726 291.068 30.1726C291.068 29.9847 291.08 29.7911 291.068 29.6089C291.012 28.9313 291.456 28.6068 292.036 28.6409C292.327 28.658 292.6 28.6865 292.799 28.9256C292.856 28.9997 292.902 29.0794 292.953 29.1591V44.1456L292.959 44.157ZM283.558 43.5477C284.424 43.5591 285.301 43.4111 286.138 43.0808C287.891 42.3861 289.121 41.1449 289.907 39.4538C290.539 38.0986 290.761 36.6637 290.659 35.1719C290.585 34.1242 290.351 33.1164 289.907 32.1655C289.189 30.6224 288.096 29.4324 286.536 28.7093C285.027 28.0089 283.45 27.895 281.839 28.2481C277.585 29.1819 274.926 33.4865 276.002 37.7057C276.879 41.1562 280.011 43.5591 283.552 43.5477H283.558Z" fill="#231815"/>
<path d="M211.023 27.115C211.029 27.0239 211.035 26.967 211.041 26.91C211.063 26.3862 211.399 26.0218 211.923 25.9591C212.003 25.9478 212.082 25.9534 212.162 25.9478C213.324 25.9478 214.485 25.9478 215.647 25.9478C215.721 25.9478 215.795 25.9478 215.863 25.9534C216.376 26.0104 216.717 26.352 216.763 26.8645C216.769 26.9442 216.763 27.0239 216.763 27.1036C216.763 32.7976 216.763 38.4972 216.763 44.1912C216.763 45.5008 216.649 46.799 216.29 48.0631C215.971 49.1848 215.487 50.2211 214.753 51.1321C213.859 52.2367 212.732 53.0168 211.399 53.5065C209.856 54.0759 208.256 54.2467 206.616 54.1214C204.76 53.9791 203.052 53.3527 201.44 52.4531C200.484 51.9179 199.584 51.2915 198.73 50.6026C198.206 50.1812 198.178 49.5776 198.65 49.0937C199.248 48.4844 199.846 47.8752 200.45 47.2659C200.848 46.8616 201.281 46.8104 201.759 47.1122C202.801 47.767 203.9 48.2965 205.073 48.6723C205.739 48.8887 206.411 49.0937 207.112 49.1563C208.353 49.2702 209.355 48.8317 210.078 47.8068C210.557 47.1292 210.807 46.3606 210.938 45.5463C210.989 45.2047 211.012 44.8631 211.058 44.4759C210.955 44.5157 210.892 44.5328 210.841 44.5613C209.657 45.1819 208.387 45.478 207.06 45.5577C205.91 45.626 204.771 45.5463 203.655 45.2616C202.209 44.8915 200.951 44.1969 199.92 43.1036C199.06 42.1926 198.468 41.1164 198.075 39.9321C197.512 38.2353 197.358 36.4873 197.483 34.7107C197.569 33.4865 197.813 32.3022 198.275 31.1691C198.884 29.6659 199.806 28.3962 201.144 27.4566C202.095 26.7848 203.149 26.3634 204.287 26.147C205.91 25.8396 207.527 25.8851 209.122 26.3236C209.697 26.483 210.249 26.705 210.779 26.9897C210.847 27.0296 210.921 27.0581 211.023 27.1093V27.115ZM202.562 35.878C202.608 36.2823 202.631 36.6979 202.71 37.0965C202.921 38.2239 203.399 39.2204 204.231 40.0289C205.745 41.4979 207.897 41.4922 209.406 40.0175C209.788 39.6417 210.107 39.2204 210.346 38.7421C211.115 37.2161 211.234 35.6332 210.756 34.0047C210.448 32.9684 209.902 32.0801 209.042 31.4026C207.698 30.3435 205.95 30.3378 204.595 31.3855C204.219 31.6702 203.9 32.0118 203.633 32.399C202.91 33.4467 202.585 34.6139 202.557 35.8837L202.562 35.878Z" fill="#231815"/>
<path d="M128.336 27.2459C128.41 27.2174 128.455 27.2004 128.495 27.1833C129.491 26.6879 130.556 26.4146 131.661 26.2722C132.367 26.1811 133.073 26.1584 133.785 26.1925C134.895 26.2495 135.977 26.4488 137.007 26.8758C138.898 27.6673 140.116 29.068 140.697 31.021C140.925 31.7897 141.033 32.5811 141.079 33.3783C141.113 34.0217 141.124 34.6651 141.124 35.3085C141.124 38.3036 141.124 41.3043 141.124 44.2993C141.124 44.4189 141.124 44.5441 141.101 44.658C141.022 45.1306 140.657 45.4438 140.185 45.4609C140.145 45.4609 140.105 45.4609 140.065 45.4609C138.71 45.4609 137.355 45.4609 136.005 45.4609C135.88 45.4609 135.743 45.4495 135.624 45.4153C135.237 45.3014 134.98 44.9598 134.963 44.5555C134.963 44.4587 134.963 44.3619 134.963 44.2651C134.963 41.1164 134.963 37.9676 134.963 34.8132C134.963 33.7427 134.519 32.8829 133.654 32.2509C133.244 31.9491 132.783 31.7669 132.276 31.71C131.672 31.6416 131.069 31.6416 130.482 31.8352C129.235 32.2509 128.358 33.4352 128.364 34.7676C128.375 37.9334 128.364 41.0993 128.364 44.2651C128.364 44.3847 128.364 44.51 128.347 44.6238C128.273 45.1192 127.903 45.4438 127.402 45.4552C127.163 45.4552 126.918 45.4552 126.679 45.4552C125.574 45.4552 124.469 45.4552 123.365 45.4552C122.886 45.4552 122.511 45.1591 122.414 44.7206C122.385 44.6068 122.391 44.4815 122.391 44.3619C122.391 42.4772 122.391 40.5925 122.391 38.7078C122.391 34.9157 122.391 31.1178 122.391 27.3256C122.391 27.2288 122.391 27.132 122.391 27.0352C122.42 26.6196 122.716 26.2665 123.12 26.1811C123.228 26.1584 123.342 26.147 123.456 26.147C124.731 26.147 126.001 26.147 127.277 26.147C127.362 26.147 127.453 26.1527 127.538 26.1697C127.988 26.2495 128.296 26.5911 128.33 27.0466C128.33 27.1036 128.341 27.1605 128.347 27.2459H128.336Z" fill="#231815"/>
<path d="M181.54 27.2459C181.615 27.2175 181.66 27.2004 181.7 27.1833C182.696 26.6879 183.761 26.4146 184.866 26.2723C185.572 26.1812 186.278 26.1584 186.99 26.1926C188.1 26.2495 189.182 26.4488 190.212 26.8758C192.103 27.6673 193.321 29.068 193.902 31.021C194.13 31.7897 194.238 32.5812 194.284 33.3783C194.318 34.0217 194.329 34.6652 194.329 35.3086C194.329 38.3036 194.329 41.3043 194.329 44.2993C194.329 44.4189 194.329 44.5442 194.306 44.658C194.227 45.1306 193.862 45.4438 193.39 45.4609C193.35 45.4609 193.31 45.4609 193.27 45.4609C191.915 45.4609 190.56 45.4609 189.21 45.4609C189.085 45.4609 188.948 45.4495 188.829 45.4153C188.442 45.3015 188.185 44.9598 188.168 44.5556C188.168 44.4588 188.168 44.362 188.168 44.2652C188.168 41.1164 188.168 37.9677 188.168 34.8132C188.168 33.8737 187.827 33.0879 187.121 32.4616C186.557 31.9605 185.891 31.7043 185.139 31.6815C184.695 31.6701 184.251 31.6701 183.818 31.7954C182.497 32.1712 181.558 33.3954 181.563 34.7733C181.575 37.9392 181.563 41.105 181.563 44.2709C181.563 44.3904 181.563 44.5157 181.546 44.6296C181.472 45.125 181.102 45.4495 180.601 45.4609C180.345 45.4609 180.083 45.4609 179.827 45.4609C178.739 45.4609 177.652 45.4609 176.564 45.4609C176.086 45.4609 175.71 45.1648 175.613 44.7264C175.585 44.6125 175.59 44.4872 175.59 44.3677C175.59 42.4488 175.59 40.5356 175.59 38.6168C175.59 34.8531 175.59 31.0951 175.59 27.3314C175.59 27.2289 175.59 27.1207 175.59 27.0182C175.624 26.6253 175.915 26.2837 176.296 26.1926C176.405 26.1641 176.518 26.1527 176.632 26.1527C177.919 26.1527 179.212 26.1527 180.498 26.1527C180.578 26.1527 180.658 26.1641 180.738 26.1755C181.187 26.2552 181.495 26.5968 181.529 27.0524C181.529 27.1093 181.54 27.1662 181.546 27.2516L181.54 27.2459Z" fill="#231815"/>
<path d="M76.8909 18.7961C80.3642 18.7961 83.8375 18.7961 87.3108 18.7961C87.4247 18.7961 87.5385 18.7961 87.6467 18.8132C88.1079 18.8815 88.4154 19.189 88.4837 19.6502C88.4951 19.7356 88.4951 19.8267 88.4951 19.9178C88.4951 21.1021 88.4951 22.2865 88.4951 23.4708C88.4951 23.5904 88.4894 23.7157 88.461 23.8295C88.3756 24.2452 88.0168 24.5527 87.5955 24.5754C87.5044 24.5754 87.419 24.5754 87.3279 24.5754C85.1926 24.5754 83.0574 24.5754 80.9222 24.5754C80.7855 24.5754 80.6489 24.5811 80.5179 24.6153C80.1022 24.7178 79.8175 25.0765 79.7948 25.5036C79.7948 25.6231 79.7948 25.7427 79.7948 25.868C79.7948 32.0004 79.7948 38.127 79.7948 44.2594C79.7948 44.3904 79.7948 44.5157 79.772 44.6466C79.6923 45.1306 79.3279 45.4495 78.8382 45.4609C78.3713 45.4666 77.9044 45.4609 77.4375 45.4609C76.6631 45.4609 75.8887 45.4381 75.1143 45.4666C74.4595 45.495 73.9983 45.0452 74.004 44.3448C74.0211 38.1498 74.0154 31.9548 74.0097 25.7598C74.0097 25.6288 74.0097 25.4979 73.9869 25.3783C73.8958 24.9228 73.5371 24.6153 73.0759 24.5811C72.9848 24.5754 72.8994 24.5811 72.8083 24.5811C70.6731 24.5811 68.5378 24.5811 66.4026 24.5811C66.283 24.5811 66.1578 24.5811 66.0439 24.5584C65.6111 24.4616 65.315 24.0915 65.3094 23.6303C65.3037 23.0836 65.3094 22.537 65.3094 21.9847C65.3094 21.2843 65.3321 20.584 65.3037 19.8836C65.2809 19.2915 65.6795 18.7847 66.4026 18.7961C67.4674 18.8132 68.5321 18.7961 69.5912 18.7961C72.0225 18.7961 74.4595 18.7961 76.8909 18.7961Z" fill="#231815"/>
<path d="M220.077 32.1314C220.077 28.1114 220.077 24.0915 220.077 20.0716C220.077 19.9805 220.077 19.8951 220.077 19.804C220.083 19.2118 220.464 18.8189 221.051 18.7961C221.108 18.7961 221.165 18.7961 221.222 18.7961C224.194 18.7961 227.172 18.7961 230.144 18.7961C231.066 18.7961 231.977 18.8759 232.883 19.0695C235.32 19.5876 237.427 20.7321 239.186 22.4858C240.911 24.2054 242.044 26.2609 242.58 28.641C242.813 29.6773 242.899 30.725 242.887 31.784C242.87 33.6004 242.528 35.3485 241.834 37.0339C240.148 41.105 236.521 44.1513 232.222 45.125C231.26 45.3413 230.286 45.4609 229.301 45.4609C226.58 45.4609 223.852 45.4609 221.131 45.4609C221.005 45.4609 220.869 45.4495 220.749 45.4154C220.362 45.3015 220.106 44.9598 220.083 44.5556C220.083 44.4588 220.083 44.362 220.083 44.2652C220.083 40.2225 220.083 36.1798 220.083 32.1314H220.077ZM222.002 43.5477C222.104 43.5477 222.173 43.5477 222.247 43.5477C224.598 43.5477 226.955 43.5477 229.307 43.5477C230.036 43.5477 230.759 43.4851 231.465 43.3314C235.092 42.557 237.808 40.5413 239.585 37.2901C240.809 35.0581 241.162 32.6438 240.889 30.1328C240.718 28.5442 240.211 27.0638 239.334 25.7314C237.193 22.463 234.147 20.7947 230.241 20.715C229.466 20.6979 228.692 20.715 227.918 20.715C226.039 20.715 224.16 20.715 222.286 20.715C222.195 20.715 222.104 20.7207 222.007 20.7264V43.5534L222.002 43.5477Z" fill="#231815"/>
<path d="M260.897 29.8937C260.897 29.7399 260.897 29.5919 260.897 29.4382C260.908 29.0168 261.17 28.7207 261.586 28.6695C261.763 28.6467 261.939 28.6524 262.116 28.6695C262.503 28.715 262.759 28.9769 262.805 29.3641C262.816 29.4439 262.81 29.5236 262.81 29.6033C262.81 34.3179 262.81 39.0268 262.81 43.7414C262.81 43.8609 262.805 43.9862 262.782 44.1001C262.708 44.4303 262.434 44.6638 262.099 44.6809C261.956 44.6866 261.808 44.6866 261.666 44.6809C261.222 44.6695 260.908 44.362 260.908 43.9122C260.903 43.2574 260.908 42.6083 260.908 41.9535C260.908 41.8737 260.908 41.7997 260.863 41.7029C260.817 41.7542 260.772 41.7997 260.732 41.851C259.838 43.0695 258.716 44.0147 257.338 44.6467C256.433 45.0624 255.476 45.3186 254.48 45.4097C252.385 45.6033 250.42 45.1819 248.615 44.0944C246.269 42.6823 244.738 40.6439 244.14 37.9734C243.417 34.7449 244.174 31.8467 246.355 29.3641C247.864 27.6446 249.788 26.6253 252.054 26.2666C253.95 25.9648 255.778 26.1983 257.515 27.041C258.802 27.6673 259.855 28.5727 260.703 29.7172C260.749 29.7798 260.8 29.8424 260.846 29.9051C260.863 29.9051 260.886 29.8937 260.903 29.888L260.897 29.8937ZM253.58 43.5478C254.303 43.5592 255.055 43.451 255.79 43.2061C257.72 42.5684 259.069 41.2759 259.923 39.4538C260.555 38.0987 260.778 36.6638 260.675 35.172C260.601 34.1243 260.368 33.1165 259.923 32.1656C259.206 30.6225 258.113 29.4325 256.553 28.7093C255.044 28.009 253.466 27.8951 251.855 28.2481C247.579 29.1819 244.926 33.515 246.03 37.7513C246.913 41.1563 250.022 43.5592 253.58 43.5478Z" fill="#231815"/>
<path d="M113.474 35.804C113.474 32.9627 113.474 30.1157 113.474 27.2744C113.474 27.1435 113.474 27.0125 113.497 26.8929C113.594 26.4545 113.964 26.1641 114.442 26.147C114.682 26.1356 114.926 26.147 115.166 26.147C116.151 26.147 117.13 26.147 118.115 26.147C118.212 26.147 118.309 26.147 118.405 26.1641C118.867 26.2324 119.174 26.5399 119.237 27.0068C119.254 27.1093 119.248 27.2175 119.248 27.32C119.248 32.9798 119.248 38.6453 119.248 44.305C119.248 44.4246 119.248 44.5499 119.225 44.6638C119.146 45.1364 118.781 45.4495 118.303 45.4609C118.064 45.4666 117.819 45.4609 117.58 45.4609C116.549 45.4609 115.519 45.4609 114.488 45.4609C114.226 45.4609 113.993 45.3983 113.793 45.2275C113.588 45.0509 113.474 44.8232 113.469 44.5499C113.469 44.4531 113.469 44.3563 113.469 44.2595C113.469 41.441 113.469 38.6225 113.469 35.804H113.474Z" fill="#231815"/>
<path d="M166.679 35.821C166.679 32.9683 166.679 30.1214 166.679 27.2687C166.679 27.1491 166.673 27.0238 166.702 26.91C166.799 26.5171 167.044 26.2609 167.448 26.1754C167.556 26.1527 167.67 26.147 167.784 26.147C168.974 26.147 170.17 26.147 171.36 26.147C171.473 26.147 171.587 26.1527 171.696 26.1754C172.094 26.2665 172.345 26.5114 172.43 26.9157C172.458 27.0466 172.458 27.189 172.458 27.3256C172.458 32.9797 172.458 38.6338 172.458 44.2879C172.458 44.3619 172.458 44.4302 172.458 44.5043C172.43 45.0794 172.037 45.4609 171.456 45.4609C170.312 45.4609 169.167 45.4609 168.023 45.4609C167.886 45.4609 167.75 45.4609 167.613 45.4609C167.083 45.4438 166.691 45.0509 166.673 44.5213C166.668 44.2879 166.673 44.0544 166.673 43.821C166.673 41.1562 166.673 38.4915 166.673 35.821H166.679Z" fill="#231815"/>
<path d="M267.667 28.7321C267.542 28.7321 267.456 28.7321 267.371 28.7321C266.619 28.7321 265.873 28.715 265.122 28.7321C264.638 28.7434 264.239 28.3676 264.279 27.8894C264.285 27.8039 264.279 27.7128 264.279 27.6217C264.285 27.1434 264.581 26.836 265.059 26.8132C265.253 26.8018 265.446 26.8132 265.64 26.8132C266.238 26.8132 266.83 26.8132 267.428 26.8132C267.496 26.8132 267.57 26.8018 267.667 26.7961V26.5C267.667 24.6096 267.673 22.7135 267.667 20.8232C267.667 20.3563 267.826 20.0146 268.219 19.7698C268.447 19.6274 268.658 19.468 268.874 19.3143C269.028 19.2004 269.187 19.1036 269.387 19.2061C269.58 19.3086 269.597 19.4908 269.597 19.6844C269.597 20.7662 269.597 21.8424 269.597 22.9242V26.5C269.597 26.5968 269.597 26.6879 269.597 26.8132C269.711 26.8132 269.802 26.8246 269.899 26.8246C270.93 26.8246 271.96 26.8246 272.997 26.8246C273.088 26.8246 273.173 26.8246 273.264 26.836C273.64 26.8872 273.896 27.1377 273.942 27.5135C273.965 27.6958 273.965 27.8837 273.942 28.0659C273.891 28.4701 273.594 28.7264 273.184 28.7321C272.951 28.7321 272.718 28.7321 272.484 28.7321C271.63 28.7321 270.776 28.7321 269.922 28.7321C269.836 28.7321 269.745 28.7321 269.631 28.7321C269.626 28.8402 269.614 28.9313 269.614 29.0224C269.614 30.3093 269.614 31.6018 269.614 32.8886C269.614 36.0886 269.626 39.2829 269.603 42.4829C269.603 43.1719 270.013 43.6844 270.776 43.6502C271.476 43.616 272.177 43.6616 272.877 43.6388C273.315 43.6217 273.572 43.9235 273.315 44.3392C273.207 44.5157 273.128 44.715 273.031 44.8972C272.843 45.2673 272.541 45.4609 272.12 45.4609C271.465 45.4609 270.816 45.4666 270.161 45.4609C268.823 45.4438 267.718 44.3449 267.69 43.0125C267.69 42.8986 267.69 42.7847 267.69 42.6765C267.69 38.1499 267.69 33.6232 267.69 29.0965C267.69 28.994 267.69 28.8915 267.69 28.7434L267.667 28.7321Z" fill="#231815"/>
<path d="M160.045 45.4609C159.145 45.4609 158.24 45.4552 157.34 45.4609C157.101 45.4609 156.948 45.3812 156.828 45.1762C155.581 43.115 154.334 41.0595 153.087 38.9983C152.933 38.7421 152.945 38.6054 153.15 38.3947C154.3 37.2218 155.45 36.0431 156.595 34.8702C156.708 34.7563 156.828 34.6766 156.999 34.7165C157.147 34.7506 157.227 34.8588 157.295 34.9784C157.585 35.4624 157.87 35.9463 158.16 36.4303C159.806 39.1862 161.451 41.9478 163.097 44.7036C163.137 44.7663 163.177 44.8289 163.205 44.8915C163.336 45.1762 163.182 45.4382 162.869 45.4495C162.636 45.4609 162.402 45.4495 162.169 45.4495C161.457 45.4495 160.751 45.4495 160.039 45.4495L160.045 45.4609Z" fill="#231815"/>
<path d="M116.373 18.836C117.016 18.836 117.66 18.836 118.309 18.836C118.645 18.836 118.895 18.984 119.083 19.2573C119.203 19.4339 119.226 19.6275 119.226 19.8324C119.226 20.7036 119.226 21.5748 119.226 22.4403C119.226 22.8161 119.214 23.1976 119.226 23.5734C119.248 24.063 118.89 24.5527 118.235 24.5527C116.988 24.5527 115.735 24.5527 114.488 24.5527C113.902 24.5527 113.503 24.1484 113.503 23.5563C113.503 22.5598 113.503 21.5577 113.503 20.5613C113.503 20.3278 113.503 20.0944 113.503 19.8609C113.492 19.2232 113.942 18.8075 114.517 18.8246C115.137 18.8474 115.758 18.8246 116.379 18.8246L116.373 18.836Z" fill="#004BFF"/>
<path d="M169.571 18.836C170.215 18.836 170.858 18.836 171.507 18.836C171.843 18.836 172.094 18.984 172.281 19.2573C172.401 19.4339 172.424 19.6275 172.424 19.8324C172.424 20.7036 172.424 21.5748 172.424 22.4403C172.424 22.8161 172.412 23.1976 172.424 23.5734C172.447 24.063 172.094 24.5527 171.433 24.5527C170.186 24.5527 168.933 24.5527 167.686 24.5527C167.1 24.5527 166.701 24.1484 166.701 23.5563C166.701 22.5598 166.701 21.5577 166.701 20.5613C166.701 20.3278 166.701 20.0944 166.701 19.8609C166.69 19.2232 167.14 18.8075 167.715 18.8246C168.336 18.8474 168.956 18.8246 169.577 18.8246L169.571 18.836Z" fill="#004BFF"/>
</g>
<defs>
<clipPath id="clip0_97_1280">
<rect width="292.96" height="56" fill="white" transform="translate(0 0.250977)"/>
</clipPath>
</defs>
</svg>
